Coordinates
version=1
nRows=14
nColumns=24
inDegrees=yes

Units are S.I. units (second, meters, Newtons, ...)
Angles are in degrees.

endheader
time	pelvis_tilt	pelvis_list	pelvis_rotation	pelvis_tx	pelvis_ty	pelvis_tz	hip_flexion_r	hip_adduction_r	hip_rotation_r	knee_angle_r	ankle_angle_r	subtalar_angle_r	mtp_angle_r	hip_flexion_l	hip_adduction_l	hip_rotation_l	knee_angle_l	ankle_angle_l	subtalar_angle_l	mtp_angle_l	lumbar_extension	lumbar_bending	lumbar_rotation
      3.46000000	     -6.32756535	     -3.44471595	     -6.07119527	     -0.97890359	     -0.04115348	     -0.11904244	     -8.70129455	     10.03997354	      7.19550148	    -23.80725215	      4.19380658	     13.67872419	     20.30779747	     38.69463461	     -1.28932526	    -14.67844271	    -18.35258502	      5.81324008	     11.47978339	    -12.10428225	      6.06280129	      3.38748419	      8.20840497
      3.46500000	     -6.48120429	     -3.09052682	     -6.20210333	     -0.97127030	     -0.04165224	     -0.11882855	     -8.38234784	      9.53504828	      6.87835823	    -24.91431553	      3.37294993	     14.50657338	     20.70479274	     38.65143580	     -1.01523278	    -15.01105770	    -18.83185862	      5.33056715	     10.87224558	    -12.19848261	      6.42101646	      2.98158309	      8.22288811
      3.47000000	     -6.58592979	     -2.66172509	     -6.25531242	     -0.96358828	     -0.04202153	     -0.11894068	     -8.05314817	      8.88007323	      6.32107778	    -26.03595414	      2.45429538	     15.60150170	     21.57183000	     38.51353892	     -0.54272821	    -15.05353282	    -19.16478171	      4.53941095	      9.84556629	    -12.28904338	      6.73711831	      2.51052756	      8.14966156
      3.47500000	     -6.58598209	     -2.23339177	     -6.19774566	     -0.95591121	     -0.04221189	     -0.11921321	     -7.83725169	      8.20429857	      5.66771446	    -26.98804196	      0.95171230	     16.26142881	     23.65129716	     38.24871051	      0.04230757	    -14.85035754	    -19.38656444	      3.40022108	      8.56946258	    -11.72221876	      6.93040657	      2.00211404	      7.88953186
      3.48000000	     -6.71776408	     -1.73701398	     -6.24172061	     -0.94824326	     -0.04242577	     -0.11940032	     -7.35345408	      7.42698681	      5.01605255	    -28.18642473	     -0.37419373	     17.36858164	     24.97193748	     38.13209331	      0.60420344	    -14.74182557	    -19.64631685	      2.36143868	      7.54131148	    -11.49434655	      7.27660663	      1.47237841	      7.84157383
      3.48500000	     -6.83623361	     -1.19618089	     -6.27041359	     -0.94060706	     -0.04254030	     -0.11960025	     -6.83899201	      6.59275374	      4.43021447	    -29.38469468	     -1.92618952	     18.37778620	     26.58429355	     38.01470275	      1.22701038	    -14.58350650	    -19.90501348	      1.24824472	      6.49679795	    -11.31388182	      7.60510608	      0.87862872	      7.73019487
      3.49000000	     -6.99491198	     -0.63969804	     -6.37157093	     -0.93313496	     -0.04264607	     -0.11976781	     -6.17304435	      5.72058068	      3.94132570	    -30.73983935	     -3.45906397	     19.59073283	     27.90694740	     37.98559362	      1.81151262	    -14.48522523	    -20.24670448	      0.22585892	      5.56222700	    -11.38879293	      7.94273853	      0.29862113	      7.71181284
      3.49500000	     -7.12358981	     -0.04630790	     -6.32903029	     -0.92540778	     -0.04263974	     -0.12002582	     -5.57459959	      4.80511348	      3.33402733	    -31.92054429	     -5.51485091	     20.38721961	     29.92560489	     37.88831348	      2.55240550	    -14.08699179	    -20.53039409	     -0.80332467	      4.58900784	    -11.42883244	      8.30606162	     -0.36895807	      7.51854161
      3.50000000	     -7.30541681	      0.53891436	     -6.41505772	     -0.91797196	     -0.04269890	     -0.12020722	     -4.76805270	      3.87562838	      2.89257757	    -33.36786262	     -7.35201765	     21.58146593	     31.15226752	     37.91085239	      3.18444497	    -13.85084036	    -20.93196281	     -1.66858186	      3.75119697	    -11.68585757	      8.66880665	     -0.97540943	      7.52167524
      3.50500000	     -7.50155019	      1.17474332	     -6.44790067	     -0.91031557	     -0.04273980	     -0.12040056	     -3.94538617	      2.89978808	      2.49564686	    -34.78534994	     -9.36946148	     22.63072432	     32.25449830	     37.90803562	      3.91565822	    -13.49682108	    -21.28254585	     -2.41790678	      2.89111311	    -12.02444628	      9.10256257	     -1.65553494	      7.42610644
      3.51000000	     -7.66317456	      1.76228696	     -6.41555439	     -0.90282060	     -0.04277682	     -0.12066201	     -3.11193386	      1.96900247	      2.05654360	    -36.22023334	    -11.58060290	     23.50926481	     33.39329653	     37.89230447	      4.64843035	    -13.03907003	    -21.66892312	     -3.08978018	      2.02886601	    -12.42235257	      9.45455869	     -2.29602444	      7.31034870
      3.51500000	     -7.75398768	      2.32131232	     -6.29760772	     -0.89536027	     -0.04275534	     -0.12094334	     -2.35414586	      1.06396806	      1.55142671	    -37.57093860	    -14.09860344	     24.03875348	     34.91852611	     37.80497787	      5.39496234	    -12.57044703	    -22.09317540	     -3.54915738	      1.36606056	    -12.90947270	      9.70894670	     -2.94568593	      7.08824705
      3.52000000	     -7.90667483	      2.91086796	     -6.29186441	     -0.88798093	     -0.04280783	     -0.12111694	     -1.41321202	      0.15108285	      1.28863121	    -39.17623784	    -16.32302246	     24.73084109	     35.09989021	     37.75327804	      6.10072202	    -12.21789368	    -22.44981458	     -3.96403353	      0.59266919	    -13.22615964	     10.03225437	     -3.58215617	      7.04699324
      3.52500000	     -8.01894518	      3.46899351	     -6.16761901	     -0.88062959	     -0.04285922	     -0.12140837	     -0.51108142	     -0.73197831	      0.92328085	    -40.77007865	    -18.64054829	     25.18117597	     35.14575618	     37.64256631	      6.85525783	    -11.78622002	    -22.79057251	     -4.27900306	     -0.15148432	    -13.50717861	     10.29036136	     -4.21913153	      6.87127021
